<svg data-v-423bf9ae="" xmlns="http://www.w3.org/2000/svg" viewBox="0 0 586 91" class="iconLeftSlogan"><!----><!----><!----><g data-v-423bf9ae="" id="32415566-d9e4-412d-a48b-8859a5a0ca2c" fill="white" transform="matrix(4.480956077575684,0,0,4.480956077575684,109.86756896972656,-16.04182243347168)"><path d="M0.03 4.30L0.03 4.30L0.03 3.78L3.22 3.78L3.35 4.16L6.48 11.94L6.48 11.94Q8.19 8.23 9.66 4.16L9.66 4.16L9.79 3.78L12.98 3.78L12.98 4.30L12.98 4.30Q12.59 4.31 12.38 4.33L12.38 4.33L12.38 4.33Q12.18 4.35 11.93 4.40L11.93 4.40L11.93 4.40Q11.68 4.45 11.57 4.55L11.57 4.55L11.57 4.55Q11.47 4.65 11.47 4.80L11.47 4.80L11.47 4.80Q11.47 4.84 11.73 12.49L11.73 12.49L11.75 12.88L11.75 12.88Q11.79 13.31 12.01 13.43L12.01 13.43L12.01 13.43Q12.22 13.55 12.88 13.59L12.88 13.59L12.88 14.11L9.00 14.11L9.00 13.59L9.00 13.59Q9.42 13.57 9.65 13.52L9.65 13.52L9.65 13.52Q9.88 13.48 10.07 13.34L10.07 13.34L10.07 13.34Q10.26 13.20 10.26 12.95L10.26 12.95L10.26 12.95Q10.22 10.25 9.95 5.75L9.95 5.75L9.95 5.75Q8.01 10.02 6.44 14.11L6.44 14.11L5.89 14.11L2.31 5.70L2.31 5.70Q2.10 9.31 2.10 12.95L2.10 12.95L2.10 12.95Q2.10 13.45 3.35 13.57L3.35 13.57L3.35 14.11L0.04 14.11L0.04 13.61L0.04 13.61Q0.67 13.54 0.91 13.24L0.91 13.24L0.91 13.24Q1.15 12.94 1.20 12.26L1.20 12.26L1.20 12.26Q1.34 10.11 1.43 8.24L1.43 8.24L1.43 8.24Q1.51 6.37 1.53 5.57L1.53 5.57L1.54 4.79L1.54 4.79Q1.54 4.52 1.17 4.43L1.17 4.43L1.17 4.43Q0.80 4.34 0.03 4.30ZM13.76 10.67L13.76 10.67L13.76 10.67Q13.76 9.25 14.07 8.53L14.07 8.53L14.07 8.53Q14.29 8.01 15.15 7.40L15.15 7.40L15.15 7.40Q16.00 6.79 16.74 6.79L16.74 6.79L16.74 6.79Q17.39 6.79 17.88 6.94L17.88 6.94L17.88 6.94Q18.37 7.10 18.65 7.40L18.65 7.40L18.65 7.40Q18.93 7.70 19.10 7.99L19.10 7.99L19.10 7.99Q19.28 8.27 19.34 8.70L19.34 8.70L19.34 8.70Q19.40 9.13 19.43 9.38L19.43 9.38L19.43 9.38Q19.45 9.63 19.45 10.00L19.45 10.00L19.45 10.00Q19.45 10.12 19.45 10.18L19.45 10.18L19.45 10.18Q19.00 10.46 17.98 10.46L17.98 10.46L15.11 10.46L15.11 10.46Q15.11 10.91 15.12 11.15L15.12 11.15L15.12 11.15Q15.13 11.40 15.18 11.78L15.18 11.78L15.18 11.78Q15.22 12.17 15.34 12.38L15.34 12.38L15.34 12.38Q15.46 12.60 15.65 12.82L15.65 12.82L15.65 12.82Q15.85 13.05 16.17 13.15L16.17 13.15L16.17 13.15Q16.49 13.24 16.93 13.24L16.93 13.24L16.93 13.24Q18.14 13.24 19.15 12.25L19.15 12.25L19.46 12.57L19.46 12.57Q19.40 12.63 19.19 12.85L19.19 12.85L19.19 12.85Q18.98 13.06 18.91 13.13L18.91 13.13L18.91 13.13Q18.84 13.20 18.65 13.39L18.65 13.39L18.65 13.39Q18.45 13.58 18.35 13.65L18.35 13.65L18.35 13.65Q18.24 13.72 18.05 13.86L18.05 13.86L18.05 13.86Q17.86 14 17.73 14.06L17.73 14.06L17.73 14.06Q17.60 14.11 17.41 14.19L17.41 14.19L17.41 14.19Q17.22 14.27 17.03 14.29L17.03 14.29L17.03 14.29Q16.84 14.32 16.65 14.32L16.65 14.32L16.65 14.32Q15.81 14.32 15.21 13.99L15.21 13.99L15.21 13.99Q14.62 13.66 14.32 13.10L14.32 13.10L14.32 13.10Q14.01 12.54 13.89 11.95L13.89 11.95L13.89 11.95Q13.76 11.35 13.76 10.67ZM15.13 9.83L15.13 9.83L15.93 9.83L15.93 9.83Q17.79 9.83 18.14 9.58L18.14 9.58L18.14 9.58Q18.14 9.28 18.09 9.00L18.09 9.00L18.09 9.00Q18.03 8.72 17.89 8.41L17.89 8.41L17.89 8.41Q17.75 8.09 17.44 7.90L17.44 7.90L17.44 7.90Q17.14 7.70 16.69 7.70L16.69 7.70L16.69 7.70Q15.74 7.70 15.44 8.17L15.44 8.17L15.44 8.17Q15.13 8.64 15.13 9.83ZM20.51 9.10L20.51 9.10L20.51 9.10Q20.51 8.43 20.75 8.06L20.75 8.06L20.75 8.06Q21.25 7.25 21.70 7.01L21.70 7.01L21.70 7.01Q22.15 6.76 23.03 6.76L23.03 6.76L23.03 6.76Q23.55 6.76 24.11 7L24.11 7L24.11 7Q24.26 7.06 24.34 7.10L24.34 7.10L24.34 7.10Q24.42 7.15 24.50 7.30L24.50 7.30L24.50 7.30Q24.58 7.45 24.58 7.69L24.58 7.69L24.58 7.69Q24.58 7.73 24.57 7.90L24.57 7.90L24.57 7.90Q24.56 8.08 24.55 8.39L24.55 8.39L24.55 8.39Q24.54 8.69 24.54 9.06L24.54 9.06L24.02 9.06L24.02 9.06Q24.01 8.88 23.91 8.53L23.91 8.53L23.91 8.53Q23.80 8.18 23.67 7.99L23.67 7.99L23.67 7.99Q23.39 7.59 22.62 7.59L22.62 7.59L22.62 7.59Q22.25 7.59 21.99 7.69L21.99 7.69L21.99 7.69Q21.74 7.80 21.64 7.96L21.64 7.96L21.64 7.96Q21.53 8.12 21.49 8.25L21.49 8.25L21.49 8.25Q21.45 8.39 21.45 8.51L21.45 8.51L21.45 8.51Q21.45 8.96 21.80 9.23L21.80 9.23L21.80 9.23Q22.15 9.51 22.65 9.67L22.65 9.67L22.65 9.67Q23.16 9.84 23.67 10.04L23.67 10.04L23.67 10.04Q24.18 10.25 24.53 10.72L24.53 10.72L24.53 10.72Q24.88 11.19 24.88 11.90L24.88 11.90L24.88 11.90Q24.88 12.64 24.67 12.99L24.67 12.99L24.67 12.99Q24.29 13.59 23.77 14L23.77 14L23.77 14Q23.56 14.15 23.11 14.25L23.11 14.25L23.11 14.25Q22.67 14.35 22.44 14.35L22.44 14.35L22.44 14.35Q20.94 14.35 20.65 13.85L20.65 13.85L20.65 13.85Q20.54 13.66 20.54 13.37L20.54 13.37L20.54 13.37Q20.54 12.24 20.60 11.98L20.60 11.98L20.60 11.98Q20.66 11.72 20.92 11.72L20.92 11.72L20.92 11.72Q21.13 11.72 21.18 11.91L21.18 11.91L21.18 11.91Q21.24 12.11 21.29 12.45L21.29 12.45L21.29 12.45Q21.34 12.80 21.49 13.01L21.49 13.01L21.49 13.01Q21.81 13.45 22.65 13.45L22.65 13.45L22.65 13.45Q23.27 13.45 23.62 13.17L23.62 13.17L23.62 13.17Q23.97 12.89 23.97 12.40L23.97 12.40L23.97 12.40Q23.97 11.93 23.61 11.65L23.61 11.65L23.61 11.65Q23.25 11.37 22.74 11.21L22.74 11.21L22.74 11.21Q22.23 11.05 21.73 10.86L21.73 10.86L21.73 10.86Q21.22 10.67 20.87 10.23L20.87 10.23L20.87 10.23Q20.51 9.80 20.51 9.10ZM25.93 9.10L25.93 9.10L25.93 9.10Q25.93 8.43 26.17 8.06L26.17 8.06L26.17 8.06Q26.67 7.25 27.12 7.01L27.12 7.01L27.12 7.01Q27.57 6.76 28.45 6.76L28.45 6.76L28.45 6.76Q28.97 6.76 29.53 7L29.53 7L29.53 7Q29.68 7.06 29.76 7.10L29.76 7.10L29.76 7.10Q29.83 7.15 29.92 7.30L29.92 7.30L29.92 7.30Q30.00 7.45 30.00 7.69L30.00 7.69L30.00 7.69Q30.00 7.73 29.99 7.90L29.99 7.90L29.99 7.90Q29.97 8.08 29.97 8.39L29.97 8.39L29.97 8.39Q29.96 8.69 29.96 9.06L29.96 9.06L29.44 9.06L29.44 9.06Q29.43 8.88 29.32 8.53L29.32 8.53L29.32 8.53Q29.22 8.18 29.09 7.99L29.09 7.99L29.09 7.99Q28.81 7.59 28.04 7.59L28.04 7.59L28.04 7.59Q27.66 7.59 27.41 7.69L27.41 7.69L27.41 7.69Q27.16 7.80 27.06 7.96L27.06 7.96L27.06 7.96Q26.95 8.12 26.91 8.25L26.91 8.25L26.91 8.25Q26.87 8.39 26.87 8.51L26.87 8.51L26.87 8.51Q26.87 8.96 27.22 9.23L27.22 9.23L27.22 9.23Q27.57 9.51 28.07 9.67L28.07 9.67L28.07 9.67Q28.57 9.84 29.09 10.04L29.09 10.04L29.09 10.04Q29.60 10.25 29.95 10.72L29.95 10.72L29.95 10.72Q30.30 11.19 30.30 11.90L30.30 11.90L30.30 11.90Q30.30 12.64 30.09 12.99L30.09 12.99L30.09 12.99Q29.71 13.59 29.19 14L29.19 14L29.19 14Q28.98 14.15 28.53 14.25L28.53 14.25L28.53 14.25Q28.08 14.35 27.86 14.35L27.86 14.35L27.86 14.35Q26.36 14.35 26.07 13.85L26.07 13.85L26.07 13.85Q25.96 13.66 25.96 13.37L25.96 13.37L25.96 13.37Q25.96 12.24 26.02 11.98L26.02 11.98L26.02 11.98Q26.08 11.72 26.33 11.72L26.33 11.72L26.33 11.72Q26.54 11.72 26.60 11.91L26.60 11.91L26.60 11.91Q26.66 12.11 26.71 12.45L26.71 12.45L26.71 12.45Q26.75 12.80 26.91 13.01L26.91 13.01L26.91 13.01Q27.23 13.45 28.07 13.45L28.07 13.45L28.07 13.45Q28.69 13.45 29.04 13.17L29.04 13.17L29.04 13.17Q29.39 12.89 29.39 12.40L29.39 12.40L29.39 12.40Q29.39 11.93 29.03 11.65L29.03 11.65L29.03 11.65Q28.67 11.37 28.16 11.21L28.16 11.21L28.16 11.21Q27.65 11.05 27.15 10.86L27.15 10.86L27.15 10.86Q26.64 10.67 26.29 10.23L26.29 10.23L26.29 10.23Q25.93 9.80 25.93 9.10ZM31.28 12.42L31.28 12.42L31.28 12.42Q31.28 11.93 31.37 11.55L31.37 11.55L31.37 11.55Q31.47 11.17 31.70 10.92L31.70 10.92L31.70 10.92Q31.92 10.67 32.14 10.50L32.14 10.50L32.14 10.50Q32.37 10.33 32.78 10.21L32.78 10.21L32.78 10.21Q33.19 10.09 33.50 10.03L33.50 10.03L33.50 10.03Q33.80 9.97 34.34 9.86L34.34 9.86L34.34 9.86Q34.89 9.76 35.22 9.69L35.22 9.69L35.22 9.69Q35.22 9.49 35.23 9.20L35.23 9.20L35.23 9.20Q35.24 8.90 35.24 8.85L35.24 8.85L35.24 8.85Q35.24 8.20 34.78 7.92L34.78 7.92L34.78 7.92Q34.31 7.64 33.71 7.64L33.71 7.64L33.71 7.64Q33.01 7.64 32.76 7.97L32.76 7.97L32.76 7.97Q32.51 8.30 32.21 9.38L32.21 9.38L31.64 9.32L31.64 9.32Q31.64 9.28 31.65 9.04L31.65 9.04L31.65 9.04Q31.65 8.79 31.69 8.60L31.69 8.60L31.69 8.60Q31.72 8.41 31.80 8.12L31.80 8.12L31.80 8.12Q31.88 7.83 32.07 7.61L32.07 7.61L32.07 7.61Q32.26 7.39 32.54 7.18L32.54 7.18L32.54 7.18Q32.82 6.97 33.28 6.86L33.28 6.86L33.28 6.86Q33.74 6.75 34.34 6.75L34.34 6.75L34.34 6.75Q34.96 6.75 35.39 6.89L35.39 6.89L35.39 6.89Q35.83 7.03 36.04 7.20L36.04 7.20L36.04 7.20Q36.26 7.38 36.38 7.68L36.38 7.68L36.38 7.68Q36.50 7.98 36.51 8.16L36.51 8.16L36.51 8.16Q36.53 8.34 36.53 8.62L36.53 8.62L36.53 8.62Q36.53 9.69 36.50 10.90L36.50 10.90L36.50 10.90Q36.47 12.11 36.47 12.32L36.47 12.32L36.47 12.32Q36.47 12.67 36.79 13.17L36.79 13.17L36.79 13.17Q37.10 13.66 37.10 13.75L37.10 13.75L37.10 13.75Q37.10 13.82 36.97 13.86L36.97 13.86L36.97 13.86Q35.99 14.18 35.90 14.18L35.90 14.18L35.90 14.18Q35.76 14.18 35.64 13.98L35.64 13.98L35.64 13.98Q35.52 13.78 35.42 13.48L35.42 13.48L35.42 13.48Q35.32 13.19 35.31 13.17L35.31 13.17L35.31 13.17Q35.10 13.31 34.79 13.52L34.79 13.52L34.79 13.52Q34.48 13.73 34.36 13.81L34.36 13.81L34.36 13.81Q34.24 13.89 34.03 14L34.03 14L34.03 14Q33.81 14.11 33.64 14.15L33.64 14.15L33.64 14.15Q33.47 14.20 33.22 14.22L33.22 14.22L33.22 14.22Q32.97 14.25 32.65 14.25L32.65 14.25L32.65 14.25Q31.92 14.25 31.60 13.72L31.60 13.72L31.60 13.72Q31.28 13.19 31.28 12.42ZM32.54 12.28L32.54 12.28L32.54 12.28Q32.54 13.31 33.47 13.31L33.47 13.31L33.47 13.31Q34.30 13.31 35.14 12.61L35.14 12.61L35.14 12.61Q35.24 12.53 35.24 11.42L35.24 11.42L35.24 11.42Q35.24 10.65 35.22 10.23L35.22 10.23L35.22 10.23Q34.97 10.32 34.59 10.44L34.59 10.44L34.59 10.44Q34.20 10.57 34.04 10.63L34.04 10.63L34.04 10.63Q33.88 10.68 33.61 10.77L33.61 10.77L33.61 10.77Q33.35 10.86 33.26 10.92L33.26 10.92L33.26 10.92Q33.17 10.98 33.01 11.06L33.01 11.06L33.01 11.06Q32.84 11.14 32.80 11.22L32.80 11.22L32.80 11.22Q32.76 11.30 32.68 11.40L32.68 11.40L32.68 11.40Q32.59 11.51 32.58 11.64L32.58 11.64L32.58 11.64Q32.56 11.77 32.55 11.92L32.55 11.92L32.55 11.92Q32.54 12.07 32.54 12.28ZM37.55 15.27L37.55 15.27L37.55 15.27Q37.55 15.06 37.60 14.88L37.60 14.88L37.60 14.88Q37.65 14.70 37.81 14.44L37.81 14.44L37.81 14.44Q37.97 14.18 38.36 13.92L38.36 13.92L38.36 13.92Q38.75 13.65 39.34 13.40L39.34 13.40L39.34 13.40Q38.23 13.24 38.23 12.64L38.23 12.64L38.23 12.64Q38.23 12.01 39.48 11.63L39.48 11.63L39.48 11.63Q38.77 11.31 38.46 10.96L38.46 10.96L38.46 10.96Q38.15 10.60 38.02 9.93L38.02 9.93L38.02 9.93Q38.01 9.87 38.01 9.66L38.01 9.66L38.01 9.66Q38.01 8.90 38.25 8.37L38.25 8.37L38.25 8.37Q38.46 7.94 39.30 7.36L39.30 7.36L39.30 7.36Q40.14 6.78 41.10 6.78L41.10 6.78L41.10 6.78Q41.94 6.78 42.62 7.34L42.62 7.34L42.62 7.34Q43.30 7.31 43.97 7.15L43.97 7.15L44.06 7.24L44.06 7.83L42.95 7.83L42.95 7.83Q43.06 7.98 43.15 8.44L43.15 8.44L43.15 8.44Q43.23 8.90 43.23 9.25L43.23 9.25L43.23 9.25Q43.23 9.84 43.05 10.26L43.05 10.26L43.05 10.26Q42.87 10.68 42.42 11.09L42.42 11.09L42.42 11.09Q41.69 11.51 40.66 11.73L40.66 11.73L40.66 11.73Q39.51 12.03 39.51 12.53L39.51 12.53L39.51 12.53Q39.51 12.73 39.68 12.87L39.68 12.87L39.68 12.87Q39.84 13.01 40.11 13.01L40.11 13.01L41.78 13.01L41.78 13.01Q42.70 13.01 43.05 13.15L43.05 13.15L43.05 13.15Q43.40 13.29 43.73 13.71L43.73 13.71L43.73 13.71Q44.06 14.13 44.06 14.63L44.06 14.63L44.06 14.63Q44.06 15.01 43.86 15.39L43.86 15.39L43.86 15.39Q43.67 15.78 43.27 16.14L43.27 16.14L43.27 16.14Q42.87 16.51 42.13 16.74L42.13 16.74L42.13 16.74Q41.38 16.97 40.42 16.97L40.42 16.97L40.42 16.97Q39.96 16.97 39.50 16.89L39.50 16.89L39.50 16.89Q39.05 16.81 38.58 16.64L38.58 16.64L38.58 16.64Q38.12 16.46 37.84 16.11L37.84 16.11L37.84 16.11Q37.55 15.75 37.55 15.27ZM38.75 14.87L38.75 14.87L38.75 14.87Q38.75 15.51 39.37 15.97L39.37 15.97L39.37 15.97Q39.98 16.42 40.66 16.42L40.66 16.42L40.66 16.42Q41.69 16.42 42.20 15.96L42.20 15.96L42.20 15.96Q42.71 15.50 42.71 14.76L42.71 14.76L42.71 14.76Q42.71 13.69 41.08 13.69L41.08 13.69L41.08 13.69Q38.75 13.69 38.75 14.87ZM39.30 9.58L39.30 9.58L39.30 9.58Q39.30 10.22 39.66 10.63L39.66 10.63L39.66 10.63Q40.03 11.03 40.71 11.03L40.71 11.03L40.71 11.03Q41.40 11.03 41.65 10.67L41.65 10.67L41.65 10.67Q41.90 10.30 41.90 9.30L41.90 9.30L41.90 9.30Q41.90 8.39 41.62 8.06L41.62 8.06L41.62 8.06Q41.34 7.74 40.53 7.64L40.53 7.64L40.53 7.64Q40.46 7.63 40.33 7.63L40.33 7.63L40.33 7.63Q39.82 7.63 39.56 8.06L39.56 8.06L39.56 8.06Q39.30 8.48 39.30 9.58ZM44.48 10.67L44.48 10.67L44.48 10.67Q44.48 9.25 44.79 8.53L44.79 8.53L44.79 8.53Q45.01 8.01 45.86 7.40L45.86 7.40L45.86 7.40Q46.72 6.79 47.46 6.79L47.46 6.79L47.46 6.79Q48.10 6.79 48.59 6.94L48.59 6.94L48.59 6.94Q49.08 7.10 49.36 7.40L49.36 7.40L49.36 7.40Q49.64 7.70 49.82 7.99L49.82 7.99L49.82 7.99Q49.99 8.27 50.06 8.70L50.06 8.70L50.06 8.70Q50.12 9.13 50.14 9.38L50.14 9.38L50.14 9.38Q50.16 9.63 50.16 10.00L50.16 10.00L50.16 10.00Q50.16 10.12 50.16 10.18L50.16 10.18L50.16 10.18Q49.71 10.46 48.69 10.46L48.69 10.46L45.82 10.46L45.82 10.46Q45.82 10.91 45.84 11.15L45.84 11.15L45.84 11.15Q45.85 11.40 45.89 11.78L45.89 11.78L45.89 11.78Q45.93 12.17 46.05 12.38L46.05 12.38L46.05 12.38Q46.17 12.60 46.37 12.82L46.37 12.82L46.37 12.82Q46.56 13.05 46.89 13.15L46.89 13.15L46.89 13.15Q47.21 13.24 47.64 13.24L47.64 13.24L47.64 13.24Q48.86 13.24 49.87 12.25L49.87 12.25L50.18 12.57L50.18 12.57Q50.12 12.63 49.91 12.85L49.91 12.85L49.91 12.85Q49.70 13.06 49.63 13.13L49.63 13.13L49.63 13.13Q49.56 13.20 49.36 13.39L49.36 13.39L49.36 13.39Q49.17 13.58 49.06 13.65L49.06 13.65L49.06 13.65Q48.96 13.72 48.77 13.86L48.77 13.86L48.77 13.86Q48.58 14 48.45 14.06L48.45 14.06L48.45 14.06Q48.31 14.11 48.13 14.19L48.13 14.19L48.13 14.19Q47.94 14.27 47.75 14.29L47.75 14.29L47.75 14.29Q47.56 14.32 47.36 14.32L47.36 14.32L47.36 14.32Q46.52 14.32 45.93 13.99L45.93 13.99L45.93 13.99Q45.33 13.66 45.03 13.10L45.03 13.10L45.03 13.10Q44.73 12.54 44.60 11.95L44.60 11.95L44.60 11.95Q44.48 11.35 44.48 10.67ZM45.85 9.83L45.85 9.83L46.65 9.83L46.65 9.83Q48.51 9.83 48.86 9.58L48.86 9.58L48.86 9.58Q48.86 9.28 48.80 9.00L48.80 9.00L48.80 9.00Q48.75 8.72 48.61 8.41L48.61 8.41L48.61 8.41Q48.47 8.09 48.16 7.90L48.16 7.90L48.16 7.90Q47.85 7.70 47.40 7.70L47.40 7.70L47.40 7.70Q46.45 7.70 46.15 8.17L46.15 8.17L46.15 8.17Q45.85 8.64 45.85 9.83ZM50.62 4.30L50.62 4.30L50.62 3.78L53.82 3.78L53.94 4.16L57.08 11.94L57.08 11.94Q58.79 8.23 60.26 4.16L60.26 4.16L60.38 3.78L63.57 3.78L63.57 4.30L63.57 4.30Q63.18 4.31 62.98 4.33L62.98 4.33L62.98 4.33Q62.78 4.35 62.52 4.40L62.52 4.40L62.52 4.40Q62.27 4.45 62.17 4.55L62.17 4.55L62.17 4.55Q62.06 4.65 62.06 4.80L62.06 4.80L62.06 4.80Q62.06 4.84 62.33 12.49L62.33 12.49L62.34 12.88L62.34 12.88Q62.38 13.31 62.60 13.43L62.60 13.43L62.60 13.43Q62.82 13.55 63.48 13.59L63.48 13.59L63.48 14.11L59.60 14.11L59.60 13.59L59.60 13.59Q60.02 13.57 60.25 13.52L60.25 13.52L60.25 13.52Q60.48 13.48 60.67 13.34L60.67 13.34L60.67 13.34Q60.86 13.20 60.86 12.95L60.86 12.95L60.86 12.95Q60.82 10.25 60.55 5.75L60.55 5.75L60.55 5.75Q58.60 10.02 57.04 14.11L57.04 14.11L56.49 14.11L52.91 5.70L52.91 5.70Q52.70 9.31 52.70 12.95L52.70 12.95L52.70 12.95Q52.70 13.45 53.94 13.57L53.94 13.57L53.94 14.11L50.64 14.11L50.64 13.61L50.64 13.61Q51.27 13.54 51.51 13.24L51.51 13.24L51.51 13.24Q51.74 12.94 51.80 12.26L51.80 12.26L51.80 12.26Q51.94 10.11 52.02 8.24L52.02 8.24L52.02 8.24Q52.11 6.37 52.12 5.57L52.12 5.57L52.14 4.79L52.14 4.79Q52.14 4.52 51.77 4.43L51.77 4.43L51.77 4.43Q51.39 4.34 50.62 4.30ZM64.50 12.42L64.50 12.42L64.50 12.42Q64.50 11.93 64.60 11.55L64.60 11.55L64.60 11.55Q64.69 11.17 64.92 10.92L64.92 10.92L64.92 10.92Q65.14 10.67 65.37 10.50L65.37 10.50L65.37 10.50Q65.59 10.33 66.00 10.21L66.00 10.21L66.00 10.21Q66.42 10.09 66.72 10.03L66.72 10.03L66.72 10.03Q67.02 9.97 67.56 9.86L67.56 9.86L67.56 9.86Q68.11 9.76 68.45 9.69L68.45 9.69L68.45 9.69Q68.45 9.49 68.45 9.20L68.45 9.20L68.45 9.20Q68.46 8.90 68.46 8.85L68.46 8.85L68.46 8.85Q68.46 8.20 68.00 7.92L68.00 7.92L68.00 7.92Q67.54 7.64 66.93 7.64L66.93 7.64L66.93 7.64Q66.23 7.64 65.98 7.97L65.98 7.97L65.98 7.97Q65.73 8.30 65.44 9.38L65.44 9.38L64.86 9.32L64.86 9.32Q64.86 9.28 64.87 9.04L64.87 9.04L64.87 9.04Q64.88 8.79 64.91 8.60L64.91 8.60L64.91 8.60Q64.95 8.41 65.02 8.12L65.02 8.12L65.02 8.12Q65.10 7.83 65.29 7.61L65.29 7.61L65.29 7.61Q65.48 7.39 65.76 7.18L65.76 7.18L65.76 7.18Q66.04 6.97 66.50 6.86L66.50 6.86L66.50 6.86Q66.96 6.75 67.56 6.75L67.56 6.75L67.56 6.75Q68.18 6.75 68.61 6.89L68.61 6.89L68.61 6.89Q69.05 7.03 69.27 7.20L69.27 7.20L69.27 7.20Q69.48 7.38 69.60 7.68L69.60 7.68L69.60 7.68Q69.72 7.98 69.73 8.16L69.73 8.16L69.73 8.16Q69.75 8.34 69.75 8.62L69.75 8.62L69.75 8.62Q69.75 9.69 69.72 10.90L69.72 10.90L69.72 10.90Q69.69 12.11 69.69 12.32L69.69 12.32L69.69 12.32Q69.69 12.67 70.01 13.17L70.01 13.17L70.01 13.17Q70.32 13.66 70.32 13.75L70.32 13.75L70.32 13.75Q70.32 13.82 70.20 13.86L70.20 13.86L70.20 13.86Q69.22 14.18 69.12 14.18L69.12 14.18L69.12 14.18Q68.98 14.18 68.86 13.98L68.86 13.98L68.86 13.98Q68.74 13.78 68.64 13.48L68.64 13.48L68.64 13.48Q68.54 13.19 68.53 13.17L68.53 13.17L68.53 13.17Q68.32 13.31 68.01 13.52L68.01 13.52L68.01 13.52Q67.70 13.73 67.59 13.81L67.59 13.81L67.59 13.81Q67.47 13.89 67.25 14L67.25 14L67.25 14Q67.03 14.11 66.86 14.15L66.86 14.15L66.86 14.15Q66.70 14.20 66.44 14.22L66.44 14.22L66.44 14.22Q66.19 14.25 65.87 14.25L65.87 14.25L65.87 14.25Q65.14 14.25 64.82 13.72L64.82 13.72L64.82 13.72Q64.50 13.19 64.50 12.42ZM65.76 12.28L65.76 12.28L65.76 12.28Q65.76 13.31 66.70 13.31L66.70 13.31L66.70 13.31Q67.52 13.31 68.36 12.61L68.36 12.61L68.36 12.61Q68.46 12.53 68.46 11.42L68.46 11.42L68.46 11.42Q68.46 10.65 68.45 10.23L68.45 10.23L68.45 10.23Q68.19 10.32 67.81 10.44L67.81 10.44L67.81 10.44Q67.42 10.57 67.26 10.63L67.26 10.63L67.26 10.63Q67.10 10.68 66.84 10.77L66.84 10.77L66.84 10.77Q66.57 10.86 66.48 10.92L66.48 10.92L66.48 10.92Q66.39 10.98 66.23 11.06L66.23 11.06L66.23 11.06Q66.07 11.14 66.02 11.22L66.02 11.22L66.02 11.22Q65.98 11.30 65.90 11.40L65.90 11.40L65.90 11.40Q65.81 11.51 65.80 11.64L65.80 11.64L65.80 11.64Q65.79 11.77 65.77 11.92L65.77 11.92L65.77 11.92Q65.76 12.07 65.76 12.28ZM71.08 7.55L71.05 7.08L71.05 7.08Q71.65 7.03 72.15 6.94L72.15 6.94L72.15 6.94Q72.65 6.86 72.88 6.80L72.88 6.80L72.88 6.80Q73.11 6.75 73.15 6.75L73.15 6.75L73.15 6.75Q73.40 6.75 73.40 6.97L73.40 6.97L73.40 6.97Q73.40 6.99 73.38 7.33L73.38 7.33L73.38 7.33Q73.36 7.67 73.36 7.76L73.36 7.76L73.36 7.76Q73.47 7.70 73.91 7.41L73.91 7.41L73.91 7.41Q74.35 7.11 74.79 6.93L74.79 6.93L74.79 6.93Q75.22 6.75 75.67 6.75L75.67 6.75L75.67 6.75Q75.81 6.75 76.01 6.78L76.01 6.78L76.01 6.78Q76.22 6.82 76.59 7.01L76.59 7.01L76.59 7.01Q76.97 7.20 77.27 7.50L77.27 7.50L77.27 7.50Q77.56 7.80 77.79 8.43L77.79 8.43L77.79 8.43Q78.02 9.06 78.02 9.88L78.02 9.88L78.02 9.88Q78.02 11.90 77.19 13.05L77.19 13.05L77.19 13.05Q76.36 14.20 75.05 14.20L75.05 14.20L75.05 14.20Q74.75 14.20 74.49 14.16L74.49 14.16L74.49 14.16Q74.23 14.13 74.05 14.06L74.05 14.06L74.05 14.06Q73.88 13.99 73.75 13.92L73.75 13.92L73.75 13.92Q73.63 13.85 73.54 13.74L73.54 13.74L73.54 13.74Q73.46 13.64 73.42 13.57L73.42 13.57L73.42 13.57Q73.37 13.51 73.33 13.42L73.33 13.42L73.33 13.42Q73.29 13.33 73.28 13.31L73.28 13.31L73.28 13.31Q73.26 13.75 73.24 14.52L73.24 14.52L73.24 14.52Q73.22 15.29 73.22 15.48L73.22 15.48L73.22 15.48Q73.23 16.06 73.37 16.22L73.37 16.22L73.37 16.22Q73.51 16.38 74.06 16.48L74.06 16.48L74.06 16.95L71.20 16.95L71.20 16.51L71.20 16.51Q71.65 16.45 71.83 16.31L71.83 16.31L71.83 16.31Q72.02 16.17 72.02 15.90L72.02 15.90L72.02 15.90Q72.00 14.59 72.00 8.30L72.00 8.30L72.00 8.30Q72.00 7.80 71.85 7.67L71.85 7.67L71.85 7.67Q71.71 7.55 71.08 7.55L71.08 7.55ZM73.28 10.95L73.28 10.95L73.28 10.95Q73.28 12.42 73.58 12.97L73.58 12.97L73.58 12.97Q73.88 13.52 74.79 13.52L74.79 13.52L74.79 13.52Q75.56 13.52 76.12 12.73L76.12 12.73L76.12 12.73Q76.68 11.94 76.68 10.30L76.68 10.30L76.68 10.30Q76.68 7.83 75.07 7.83L75.07 7.83L75.07 7.83Q74.35 7.83 73.35 8.34L73.35 8.34L73.35 8.34Q73.35 8.75 73.31 9.64L73.31 9.64L73.31 9.64Q73.28 10.53 73.28 10.95ZM89.43 14.11L82.15 14.11L82.15 13.59L82.15 13.59Q82.60 13.57 82.83 13.52L82.83 13.52L82.83 13.52Q83.06 13.47 83.24 13.34L83.24 13.34L83.24 13.34Q83.41 13.20 83.41 12.95L83.41 12.95L83.41 12.95Q83.41 8.01 83.31 4.86L83.31 4.86L83.31 4.86Q83.30 4.54 83.10 4.44L83.10 4.44L83.10 4.44Q82.89 4.34 82.35 4.31L82.35 4.31L82.15 4.30L82.15 3.78L86.21 3.78L86.21 4.30L86.02 4.31L86.02 4.31Q85.62 4.34 85.41 4.38L85.41 4.38L85.41 4.38Q85.20 4.41 85.04 4.53L85.04 4.53L85.04 4.53Q84.87 4.65 84.87 4.86L84.87 4.86L84.87 4.86Q84.77 7.66 84.77 12.95L84.77 12.95L84.77 12.95Q84.77 13.50 86.14 13.50L86.14 13.50L86.44 13.50L86.44 13.50Q87.93 13.50 88.13 13.33L88.13 13.33L88.13 13.33Q88.48 13.02 88.84 11.62L88.84 11.62L89.04 10.86L89.56 10.86L89.56 10.86Q89.52 11.23 89.47 12.56L89.47 12.56L89.47 12.56Q89.43 13.89 89.43 14.11L89.43 14.11ZM97.24 14.11L89.96 14.11L89.96 13.59L89.96 13.59Q90.41 13.57 90.64 13.52L90.64 13.52L90.64 13.52Q90.87 13.47 91.05 13.34L91.05 13.34L91.05 13.34Q91.22 13.20 91.22 12.95L91.22 12.95L91.22 12.95Q91.22 8.01 91.13 4.86L91.13 4.86L91.13 4.86Q91.11 4.54 90.91 4.44L90.91 4.44L90.91 4.44Q90.71 4.34 90.16 4.31L90.16 4.31L89.96 4.30L89.96 3.78L94.02 3.78L94.02 4.30L93.83 4.31L93.83 4.31Q93.44 4.34 93.23 4.38L93.23 4.38L93.23 4.38Q93.02 4.41 92.85 4.53L92.85 4.53L92.85 4.53Q92.68 4.65 92.68 4.86L92.68 4.86L92.68 4.86Q92.58 7.66 92.58 12.95L92.58 12.95L92.58 12.95Q92.58 13.50 93.95 13.50L93.95 13.50L94.25 13.50L94.25 13.50Q95.75 13.50 95.94 13.33L95.94 13.33L95.94 13.33Q96.29 13.02 96.66 11.62L96.66 11.62L96.85 10.86L97.37 10.86L97.37 10.86Q97.33 11.23 97.29 12.56L97.29 12.56L97.29 12.56Q97.24 13.89 97.24 14.11L97.24 14.11ZM97.96 8.99L97.96 8.99L97.96 8.99Q97.96 7.25 98.45 6.10L98.45 6.10L98.45 6.10Q98.74 5.42 99.65 4.63L99.65 4.63L99.65 4.63Q100.56 3.84 101.75 3.68L101.75 3.68L101.75 3.68Q102.47 3.58 103.39 3.58L103.39 3.58L103.39 3.58Q105.20 3.58 105.94 3.99L105.94 3.99L106.09 4.14L106.09 4.14Q106.09 4.84 105.97 6.61L105.97 6.61L105.48 6.61L105.48 6.61Q105.43 6.44 105.31 6.06L105.31 6.06L105.31 6.06Q105.20 5.68 105.10 5.39L105.10 5.39L105.10 5.39Q105.01 5.10 105.01 5.08L105.01 5.08L105.01 5.08Q104.93 4.82 104.79 4.72L104.79 4.72L104.79 4.72Q103.77 4.45 102.70 4.45L102.70 4.45L102.70 4.45Q100.70 4.45 100.03 5.44L100.03 5.44L100.03 5.44Q99.36 6.43 99.36 9.04L99.36 9.04L99.36 9.04Q99.36 11.97 101.22 13.10L101.22 13.10L101.22 13.10Q102.02 13.58 102.98 13.58L102.98 13.58L102.98 13.58Q104.10 13.58 105.04 12.87L105.04 12.87L105.04 12.87Q105.18 12.61 105.45 11.62L105.45 11.62L105.64 10.86L106.16 10.86L106.16 10.86Q106.11 11.44 106.11 13.65L106.11 13.65L106.11 13.65Q104.22 14.35 102.63 14.35L102.63 14.35L102.63 14.35Q101.58 14.35 100.77 14.08L100.77 14.08L100.77 14.08Q99.96 13.82 99.31 13.22L99.31 13.22L99.31 13.22Q98.66 12.63 98.31 11.56L98.31 11.56L98.31 11.56Q97.96 10.49 97.96 8.99Z"></path></g><!----><g data-v-423bf9ae="" id="3f3c93c5-744b-42ff-9267-ff977bf4bac4" transform="matrix(1.0000218152999878,0,0,1.0000218152999878,-4.0010986328125,-4.0020751953125)" stroke="none" fill="white"><path d="M60.235 5.172V5.17c-.244-.428-.525.066-.742.266-4.564 5.039-9.201 10.018-13.732 15.086 1.316.014 5.205.018 9.723.02v34.941h-9.465v9.037h18.502V20.541c4.514-.004 8.4-.008 9.721-.014-4.641-5.146-9.327-10.25-14.007-15.355z"></path><path d="M44.519 44.52h9.465v-9.037H35.481v43.979c-4.514.002-8.402.008-9.721.014 4.641 5.145 9.326 10.25 14.006 15.354v.004c.244.426.525-.066.742-.266 4.564-5.039 9.201-10.018 13.732-15.088-1.316-.012-5.205-.016-9.723-.018V44.52z"></path><path d="M33.981 55.482H20.54c-.002-4.516-.008-8.402-.014-9.721-5.145 4.641-10.25 9.324-15.354 14.006h-.003c-.426.242.066.523.266.74 5.039 4.566 10.018 9.201 15.088 13.732.012-1.316.016-5.205.018-9.721h13.441v-9.036zM94.567 39.492c-5.041-4.564-10.02-9.201-15.088-13.73a1782.48 1782.48 0 0 0-.02 9.721H66.021v9.037H79.46c.004 4.514.008 8.402.014 9.721 5.146-4.641 10.25-9.326 15.355-14.006h.002c.428-.243-.066-.524-.264-.743z"></path></g><!----><g data-v-423bf9ae="" id="10f7de37-ef5b-4790-9a7e-b9c1a00dd0ce" fill="white" transform="matrix(0.9246144890785217,0,0,0.9246144890785217,109.41946411132812,54.748191833496094)"><path d="M6.59 9.21L6.59 8.71L6.59 8.71Q6.59 8.23 6.41 7.87L6.41 7.87L6.41 7.87Q6.22 7.50 5.89 7.27L5.89 7.27L5.89 7.27Q5.57 7.03 5.15 6.90L5.15 6.90L5.15 6.90Q4.73 6.78 4.27 6.78L4.27 6.78L4.27 6.78Q3.86 6.78 3.50 6.88L3.50 6.88L3.50 6.88Q3.14 6.99 2.85 7.18L2.85 7.18L2.85 7.18Q2.56 7.38 2.39 7.66L2.39 7.66L2.39 7.66Q2.23 7.95 2.23 8.33L2.23 8.33L2.23 8.41L2.23 8.41Q2.23 8.82 2.39 9.11L2.39 9.11L2.39 9.11Q2.56 9.39 2.89 9.60L2.89 9.60L2.89 9.60Q3.22 9.80 3.71 9.93L3.71 9.93L3.71 9.93Q4.20 10.07 4.86 10.16L4.86 10.16L4.86 10.16Q6.40 10.40 7.13 11.07L7.13 11.07L7.13 11.07Q7.85 11.73 7.85 12.85L7.85 12.85L7.85 13.02L7.85 13.02Q7.85 13.65 7.64 14.17L7.64 14.17L7.64 14.17Q7.42 14.70 6.99 15.08L6.99 15.08L6.99 15.08Q6.57 15.46 5.94 15.67L5.94 15.67L5.94 15.67Q5.31 15.88 4.48 15.88L4.48 15.88L4.48 15.88Q3.54 15.88 2.82 15.60L2.82 15.60L2.82 15.60Q2.10 15.33 1.62 14.85L1.62 14.85L1.62 14.85Q1.13 14.36 0.88 13.71L0.88 13.71L0.88 13.71Q0.63 13.06 0.63 12.29L0.63 12.29L0.63 11.87L1.81 11.87L1.81 12.21L1.81 12.21Q1.81 13.50 2.51 14.14L2.51 14.14L2.51 14.14Q3.22 14.78 4.48 14.78L4.48 14.78L4.48 14.78Q5.57 14.78 6.13 14.30L6.13 14.30L6.13 14.30Q6.68 13.82 6.68 13.02L6.68 13.02L6.68 12.94L6.68 12.94Q6.68 12.17 6.11 11.76L6.11 11.76L6.11 11.76Q5.54 11.35 4.27 11.17L4.27 11.17L4.27 11.17Q3.53 11.07 2.93 10.87L2.93 10.87L2.93 10.87Q2.34 10.67 1.92 10.34L1.92 10.34L1.92 10.34Q1.50 10.01 1.27 9.55L1.27 9.55L1.27 9.55Q1.05 9.09 1.05 8.46L1.05 8.46L1.05 8.29L1.05 8.29Q1.05 7.71 1.29 7.24L1.29 7.24L1.29 7.24Q1.53 6.76 1.95 6.41L1.95 6.41L1.95 6.41Q2.38 6.06 2.98 5.87L2.98 5.87L2.98 5.87Q3.57 5.68 4.28 5.68L4.28 5.68L4.28 5.68Q5.11 5.68 5.76 5.92L5.76 5.92L5.76 5.92Q6.41 6.16 6.86 6.56L6.86 6.56L6.86 6.56Q7.31 6.96 7.54 7.50L7.54 7.50L7.54 7.50Q7.77 8.04 7.77 8.62L7.77 8.62L7.77 9.21L6.59 9.21ZM16.21 15.68L16.21 5.88L18.45 5.88L19.77 15.18L19.94 15.18L21.25 5.88L23.49 5.88L23.49 15.68L22.40 15.68L22.40 6.38L22.23 6.38L20.92 15.68L18.79 15.68L17.47 6.38L17.30 6.38L17.30 15.68L16.21 15.68ZM38.23 15.68L37.52 13.24L33.32 13.24L32.61 15.68L31.35 15.68L34.31 5.88L36.53 5.88L39.49 15.68L38.23 15.68ZM35.50 6.38L35.34 6.38L33.64 12.15L37.20 12.15L35.50 6.38ZM54.05 12.15L54.05 15.68L52.88 15.68L52.88 12.40L52.88 12.40Q52.88 12.04 52.71 11.84L52.71 11.84L52.71 11.84Q52.54 11.65 52.12 11.65L52.12 11.65L49.07 11.65L49.07 15.68L47.89 15.68L47.89 5.88L51.39 5.88L51.39 5.88Q52.15 5.88 52.71 6.10L52.71 6.10L52.71 6.10Q53.27 6.31 53.64 6.68L53.64 6.68L53.64 6.68Q54.01 7.04 54.20 7.53L54.20 7.53L54.20 7.53Q54.39 8.01 54.39 8.54L54.39 8.54L54.39 8.96L54.39 8.96Q54.39 9.51 54.09 10.05L54.09 10.05L54.09 10.05Q53.79 10.60 53.16 10.89L53.16 10.89L53.16 11.06L53.16 11.06Q53.58 11.13 53.82 11.40L53.82 11.40L53.82 11.40Q54.05 11.66 54.05 12.15L54.05 12.15ZM49.07 6.97L49.07 10.56L51.25 10.56L51.25 10.56Q52.25 10.56 52.73 10.13L52.73 10.13L52.73 10.13Q53.21 9.70 53.21 8.88L53.21 8.88L53.21 8.62L53.21 8.62Q53.21 7.88 52.73 7.43L52.73 7.43L52.73 7.43Q52.25 6.97 51.25 6.97L51.25 6.97L49.07 6.97ZM63.11 6.97L63.11 5.88L70 5.88L70 6.97L67.14 6.97L67.14 15.68L65.97 15.68L65.97 6.97L63.11 6.97ZM94.05 15.68L94.05 5.88L96.29 5.88L97.61 15.18L97.78 15.18L99.09 5.88L101.33 5.88L101.33 15.68L100.24 15.68L100.24 6.38L100.07 6.38L98.76 15.68L96.63 15.68L95.31 6.38L95.14 6.38L95.14 15.68L94.05 15.68ZM110.29 15.68L110.29 5.88L116.23 5.88L116.23 6.97L111.47 6.97L111.47 10.22L116.14 10.22L116.14 11.31L111.47 11.31L111.47 14.59L116.31 14.59L116.31 15.68L110.29 15.68ZM131.14 9.21L131.14 8.71L131.14 8.71Q131.14 8.23 130.95 7.87L130.95 7.87L130.95 7.87Q130.76 7.50 130.44 7.27L130.44 7.27L130.44 7.27Q130.12 7.03 129.70 6.90L129.70 6.90L129.70 6.90Q129.28 6.78 128.81 6.78L128.81 6.78L128.81 6.78Q128.41 6.78 128.04 6.88L128.04 6.88L128.04 6.88Q127.68 6.99 127.39 7.18L127.39 7.18L127.39 7.18Q127.11 7.38 126.94 7.66L126.94 7.66L126.94 7.66Q126.77 7.95 126.77 8.33L126.77 8.33L126.77 8.41L126.77 8.41Q126.77 8.82 126.94 9.11L126.94 9.11L126.94 9.11Q127.11 9.39 127.44 9.60L127.44 9.60L127.44 9.60Q127.76 9.80 128.25 9.93L128.25 9.93L128.25 9.93Q128.74 10.07 129.40 10.16L129.40 10.16L129.40 10.16Q130.94 10.40 131.67 11.07L131.67 11.07L131.67 11.07Q132.40 11.73 132.40 12.85L132.40 12.85L132.40 13.02L132.40 13.02Q132.40 13.65 132.18 14.17L132.18 14.17L132.18 14.17Q131.96 14.70 131.54 15.08L131.54 15.08L131.54 15.08Q131.11 15.46 130.48 15.67L130.48 15.67L130.48 15.67Q129.85 15.88 129.02 15.88L129.02 15.88L129.02 15.88Q128.09 15.88 127.36 15.60L127.36 15.60L127.36 15.60Q126.64 15.33 126.16 14.85L126.16 14.85L126.16 14.85Q125.68 14.36 125.43 13.71L125.43 13.71L125.43 13.71Q125.17 13.06 125.17 12.29L125.17 12.29L125.17 11.87L126.35 11.87L126.35 12.21L126.35 12.21Q126.35 13.50 127.06 14.14L127.06 14.14L127.06 14.14Q127.76 14.78 129.02 14.78L129.02 14.78L129.02 14.78Q130.12 14.78 130.67 14.30L130.67 14.30L130.67 14.30Q131.22 13.82 131.22 13.02L131.22 13.02L131.22 12.94L131.22 12.94Q131.22 12.17 130.66 11.76L130.66 11.76L130.66 11.76Q130.09 11.35 128.81 11.17L128.81 11.17L128.81 11.17Q128.07 11.07 127.48 10.87L127.48 10.87L127.48 10.87Q126.88 10.67 126.46 10.34L126.46 10.34L126.46 10.34Q126.04 10.01 125.82 9.55L125.82 9.55L125.82 9.55Q125.59 9.09 125.59 8.46L125.59 8.46L125.59 8.29L125.59 8.29Q125.59 7.71 125.83 7.24L125.83 7.24L125.83 7.24Q126.07 6.76 126.50 6.41L126.50 6.41L126.50 6.41Q126.92 6.06 127.52 5.87L127.52 5.87L127.52 5.87Q128.11 5.68 128.83 5.68L128.83 5.68L128.83 5.68Q129.65 5.68 130.31 5.92L130.31 5.92L130.31 5.92Q130.96 6.16 131.40 6.56L131.40 6.56L131.40 6.56Q131.85 6.96 132.08 7.50L132.08 7.50L132.08 7.50Q132.31 8.04 132.31 8.62L132.31 8.62L132.31 9.21L131.14 9.21ZM146.71 9.21L146.71 8.71L146.71 8.71Q146.71 8.23 146.52 7.87L146.52 7.87L146.52 7.87Q146.33 7.50 146.01 7.27L146.01 7.27L146.01 7.27Q145.68 7.03 145.26 6.90L145.26 6.90L145.26 6.90Q144.84 6.78 144.38 6.78L144.38 6.78L144.38 6.78Q143.98 6.78 143.61 6.88L143.61 6.88L143.61 6.88Q143.25 6.99 142.96 7.18L142.96 7.18L142.96 7.18Q142.67 7.38 142.51 7.66L142.51 7.66L142.51 7.66Q142.34 7.95 142.34 8.33L142.34 8.33L142.34 8.41L142.34 8.41Q142.34 8.82 142.51 9.11L142.51 9.11L142.51 9.11Q142.67 9.39 143.00 9.60L143.00 9.60L143.00 9.60Q143.33 9.80 143.82 9.93L143.82 9.93L143.82 9.93Q144.31 10.07 144.97 10.16L144.97 10.16L144.97 10.16Q146.51 10.40 147.24 11.07L147.24 11.07L147.24 11.07Q147.97 11.73 147.97 12.85L147.97 12.85L147.97 13.02L147.97 13.02Q147.97 13.65 147.75 14.17L147.75 14.17L147.75 14.17Q147.53 14.70 147.10 15.08L147.10 15.08L147.10 15.08Q146.68 15.46 146.05 15.67L146.05 15.67L146.05 15.67Q145.42 15.88 144.59 15.88L144.59 15.88L144.59 15.88Q143.65 15.88 142.93 15.60L142.93 15.60L142.93 15.60Q142.21 15.33 141.73 14.85L141.73 14.85L141.73 14.85Q141.25 14.36 140.99 13.71L140.99 13.71L140.99 13.71Q140.74 13.06 140.74 12.29L140.74 12.29L140.74 11.87L141.92 11.87L141.92 12.21L141.92 12.21Q141.92 13.50 142.63 14.14L142.63 14.14L142.63 14.14Q143.33 14.78 144.59 14.78L144.59 14.78L144.59 14.78Q145.68 14.78 146.24 14.30L146.24 14.30L146.24 14.30Q146.79 13.82 146.79 13.02L146.79 13.02L146.79 12.94L146.79 12.94Q146.79 12.17 146.22 11.76L146.22 11.76L146.22 11.76Q145.66 11.35 144.38 11.17L144.38 11.17L144.38 11.17Q143.64 11.07 143.04 10.87L143.04 10.87L143.04 10.87Q142.45 10.67 142.03 10.34L142.03 10.34L142.03 10.34Q141.61 10.01 141.39 9.55L141.39 9.55L141.39 9.55Q141.16 9.09 141.16 8.46L141.16 8.46L141.16 8.29L141.16 8.29Q141.16 7.71 141.40 7.24L141.40 7.24L141.40 7.24Q141.64 6.76 142.06 6.41L142.06 6.41L142.06 6.41Q142.49 6.06 143.09 5.87L143.09 5.87L143.09 5.87Q143.68 5.68 144.40 5.68L144.40 5.68L144.40 5.68Q145.22 5.68 145.87 5.92L145.87 5.92L145.87 5.92Q146.52 6.16 146.97 6.56L146.97 6.56L146.97 6.56Q147.42 6.96 147.65 7.50L147.65 7.50L147.65 7.50Q147.88 8.04 147.88 8.62L147.88 8.62L147.88 9.21L146.71 9.21ZM162.78 15.68L162.06 13.24L157.86 13.24L157.15 15.68L155.89 15.68L158.86 5.88L161.07 5.88L164.04 15.68L162.78 15.68ZM160.05 6.38L159.88 6.38L158.19 12.15L161.74 12.15L160.05 6.38ZM174.59 12.07L174.59 10.98L178.96 10.98L178.96 15.68L177.87 15.68L177.87 14.50L177.70 14.50L177.70 14.50Q177.46 15.12 176.86 15.50L176.86 15.50L176.86 15.50Q176.26 15.88 175.46 15.88L175.46 15.88L175.46 15.88Q173.88 15.88 172.98 14.85L172.98 14.85L172.98 14.85Q172.07 13.83 172.07 11.87L172.07 11.87L172.07 9.69L172.07 9.69Q172.07 7.78 172.98 6.73L172.98 6.73L172.98 6.73Q173.89 5.68 175.52 5.68L175.52 5.68L175.52 5.68Q176.36 5.68 177.00 5.96L177.00 5.96L177.00 5.96Q177.65 6.23 178.08 6.71L178.08 6.71L178.08 6.71Q178.51 7.20 178.74 7.85L178.74 7.85L178.74 7.85Q178.96 8.50 178.96 9.24L178.96 9.24L178.96 9.41L177.79 9.41L177.79 9.24L177.79 9.24Q177.79 8.76 177.65 8.32L177.65 8.32L177.65 8.32Q177.52 7.87 177.25 7.53L177.25 7.53L177.25 7.53Q176.97 7.18 176.55 6.98L176.55 6.98L176.55 6.98Q176.12 6.78 175.52 6.78L175.52 6.78L175.52 6.78Q174.38 6.78 173.82 7.60L173.82 7.60L173.82 7.60Q173.25 8.43 173.25 9.77L173.25 9.77L173.25 11.79L173.25 11.79Q173.25 13.23 173.82 14.01L173.82 14.01L173.82 14.01Q174.38 14.78 175.55 14.78L175.55 14.78L175.55 14.78Q176.60 14.78 177.19 14.11L177.19 14.11L177.19 14.11Q177.79 13.44 177.79 12.24L177.79 12.24L177.79 12.07L174.59 12.07ZM188.13 15.68L188.13 5.88L194.07 5.88L194.07 6.97L189.31 6.97L189.31 10.22L193.98 10.22L193.98 11.31L189.31 11.31L189.31 14.59L194.15 14.59L194.15 15.68L188.13 15.68ZM218.79 11.87L218.79 9.69L218.79 9.69Q218.79 7.78 219.70 6.73L219.70 6.73L219.70 6.73Q220.61 5.68 222.24 5.68L222.24 5.68L222.24 5.68Q223.86 5.68 224.77 6.73L224.77 6.73L224.77 6.73Q225.68 7.78 225.68 9.69L225.68 9.69L225.68 11.87L225.68 11.87Q225.68 13.66 224.92 14.68L224.92 14.68L224.92 14.68Q224.15 15.69 222.78 15.85L222.78 15.85L222.78 16.44L222.78 16.44Q222.78 16.86 223.16 16.86L223.16 16.86L224.34 16.86L224.34 17.86L222.77 17.86L222.77 17.86Q222.29 17.86 221.99 17.56L221.99 17.56L221.99 17.56Q221.69 17.25 221.69 16.77L221.69 16.77L221.69 15.85L221.69 15.85Q220.30 15.68 219.55 14.67L219.55 14.67L219.55 14.67Q218.79 13.66 218.79 11.87L218.79 11.87ZM222.24 14.78L222.24 14.78L222.24 14.78Q223.37 14.78 223.94 14.01L223.94 14.01L223.94 14.01Q224.50 13.23 224.50 11.79L224.50 11.79L224.50 9.77L224.50 9.77Q224.50 8.43 223.94 7.60L223.94 7.60L223.94 7.60Q223.37 6.78 222.24 6.78L222.24 6.78L222.24 6.78Q221.10 6.78 220.54 7.60L220.54 7.60L220.54 7.60Q219.97 8.43 219.97 9.77L219.97 9.77L219.97 11.79L219.97 11.79Q219.97 13.23 220.54 14.01L220.54 14.01L220.54 14.01Q221.10 14.78 222.24 14.78ZM234.44 5.88L235.62 5.88L235.62 12.38L235.62 12.38Q235.62 13.57 236.17 14.17L236.17 14.17L236.17 14.17Q236.73 14.78 237.80 14.78L237.80 14.78L237.80 14.78Q238.88 14.78 239.44 14.17L239.44 14.17L239.44 14.17Q239.99 13.57 239.99 12.38L239.99 12.38L239.99 5.88L241.16 5.88L241.16 12.38L241.16 12.38Q241.16 14.08 240.27 14.98L240.27 14.98L240.27 14.98Q239.37 15.88 237.80 15.88L237.80 15.88L237.80 15.88Q236.24 15.88 235.34 14.98L235.34 14.98L235.34 14.98Q234.44 14.08 234.44 12.38L234.44 12.38L234.44 5.88ZM250.40 15.68L250.40 5.88L256.34 5.88L256.34 6.97L251.58 6.97L251.58 10.22L256.26 10.22L256.26 11.31L251.58 11.31L251.58 14.59L256.42 14.59L256.42 15.68L250.40 15.68ZM265.58 5.88L266.76 5.88L266.76 12.38L266.76 12.38Q266.76 13.57 267.31 14.17L267.31 14.17L267.31 14.17Q267.86 14.78 268.94 14.78L268.94 14.78L268.94 14.78Q270.02 14.78 270.57 14.17L270.57 14.17L270.57 14.17Q271.12 13.57 271.12 12.38L271.12 12.38L271.12 5.88L272.30 5.88L272.30 12.38L272.30 12.38Q272.30 14.08 271.40 14.98L271.40 14.98L271.40 14.98Q270.51 15.88 268.94 15.88L268.94 15.88L268.94 15.88Q267.37 15.88 266.48 14.98L266.48 14.98L266.48 14.98Q265.58 14.08 265.58 12.38L265.58 12.38L265.58 5.88ZM281.54 15.68L281.54 5.88L287.48 5.88L287.48 6.97L282.72 6.97L282.72 10.22L287.39 10.22L287.39 11.31L282.72 11.31L282.72 14.59L287.56 14.59L287.56 15.68L281.54 15.68ZM317.95 9.21L317.95 8.71L317.95 8.71Q317.95 8.23 317.76 7.87L317.76 7.87L317.76 7.87Q317.58 7.50 317.25 7.27L317.25 7.27L317.25 7.27Q316.93 7.03 316.51 6.90L316.51 6.90L316.51 6.90Q316.09 6.78 315.63 6.78L315.63 6.78L315.63 6.78Q315.22 6.78 314.86 6.88L314.86 6.88L314.86 6.88Q314.50 6.99 314.21 7.18L314.21 7.18L314.21 7.18Q313.92 7.38 313.75 7.66L313.75 7.66L313.75 7.66Q313.59 7.95 313.59 8.33L313.59 8.33L313.59 8.41L313.59 8.41Q313.59 8.82 313.75 9.11L313.75 9.11L313.75 9.11Q313.92 9.39 314.25 9.60L314.25 9.60L314.25 9.60Q314.58 9.80 315.07 9.93L315.07 9.93L315.07 9.93Q315.56 10.07 316.22 10.16L316.22 10.16L316.22 10.16Q317.76 10.40 318.49 11.07L318.49 11.07L318.49 11.07Q319.21 11.73 319.21 12.85L319.21 12.85L319.21 13.02L319.21 13.02Q319.21 13.65 319.00 14.17L319.00 14.17L319.00 14.17Q318.78 14.70 318.35 15.08L318.35 15.08L318.35 15.08Q317.93 15.46 317.30 15.67L317.30 15.67L317.30 15.67Q316.67 15.88 315.84 15.88L315.84 15.88L315.84 15.88Q314.90 15.88 314.18 15.60L314.18 15.60L314.18 15.60Q313.46 15.33 312.98 14.85L312.98 14.85L312.98 14.85Q312.49 14.36 312.24 13.71L312.24 13.71L312.24 13.71Q311.99 13.06 311.99 12.29L311.99 12.29L311.99 11.87L313.17 11.87L313.17 12.21L313.17 12.21Q313.17 13.50 313.87 14.14L313.87 14.14L313.87 14.14Q314.58 14.78 315.84 14.78L315.84 14.78L315.84 14.78Q316.93 14.78 317.49 14.30L317.49 14.30L317.49 14.30Q318.04 13.82 318.04 13.02L318.04 13.02L318.04 12.94L318.04 12.94Q318.04 12.17 317.47 11.76L317.47 11.76L317.47 11.76Q316.90 11.35 315.63 11.17L315.63 11.17L315.63 11.17Q314.89 11.07 314.29 10.87L314.29 10.87L314.29 10.87Q313.70 10.67 313.28 10.34L313.28 10.34L313.28 10.34Q312.86 10.01 312.63 9.55L312.63 9.55L312.63 9.55Q312.41 9.09 312.41 8.46L312.41 8.46L312.41 8.29L312.41 8.29Q312.41 7.71 312.65 7.24L312.65 7.24L312.65 7.24Q312.89 6.76 313.31 6.41L313.31 6.41L313.31 6.41Q313.74 6.06 314.34 5.87L314.34 5.87L314.34 5.87Q314.93 5.68 315.64 5.68L315.64 5.68L315.64 5.68Q316.47 5.68 317.12 5.92L317.12 5.92L317.12 5.92Q317.77 6.16 318.22 6.56L318.22 6.56L318.22 6.56Q318.67 6.96 318.90 7.50L318.90 7.50L318.90 7.50Q319.13 8.04 319.13 8.62L319.13 8.62L319.13 9.21L317.95 9.21ZM328.24 15.68L328.24 5.88L334.18 5.88L334.18 6.97L329.42 6.97L329.42 10.22L334.10 10.22L334.10 11.31L329.42 11.31L329.42 14.59L334.26 14.59L334.26 15.68L328.24 15.68ZM349.85 12.15L349.85 15.68L348.67 15.68L348.67 12.40L348.67 12.40Q348.67 12.04 348.50 11.84L348.50 11.84L348.50 11.84Q348.33 11.65 347.91 11.65L347.91 11.65L344.86 11.65L344.86 15.68L343.69 15.68L343.69 5.88L347.19 5.88L347.19 5.88Q347.94 5.88 348.50 6.10L348.50 6.10L348.50 6.10Q349.06 6.31 349.43 6.68L349.43 6.68L349.43 6.68Q349.80 7.04 349.99 7.53L349.99 7.53L349.99 7.53Q350.18 8.01 350.18 8.54L350.18 8.54L350.18 8.96L350.18 8.96Q350.18 9.51 349.88 10.05L349.88 10.05L349.88 10.05Q349.58 10.60 348.95 10.89L348.95 10.89L348.95 11.06L348.95 11.06Q349.37 11.13 349.61 11.40L349.61 11.40L349.61 11.40Q349.85 11.66 349.85 12.15L349.85 12.15ZM344.86 6.97L344.86 10.56L347.05 10.56L347.05 10.56Q348.04 10.56 348.52 10.13L348.52 10.13L348.52 10.13Q349.01 9.70 349.01 8.88L349.01 8.88L349.01 8.62L349.01 8.62Q349.01 7.88 348.52 7.43L348.52 7.43L348.52 7.43Q348.04 6.97 347.05 6.97L347.05 6.97L344.86 6.97ZM361.21 15.68L358.44 5.88L359.70 5.88L362.26 15.18L362.43 15.18L364.99 5.88L366.25 5.88L363.48 15.68L361.21 15.68ZM374.81 6.97L374.81 5.88L381.02 5.88L381.02 6.97L378.50 6.97L378.50 14.59L381.02 14.59L381.02 15.68L374.81 15.68L374.81 14.59L377.33 14.59L377.33 6.97L374.81 6.97ZM393.54 14.78L393.54 14.78L393.54 14.78Q394.14 14.78 394.57 14.58L394.57 14.58L394.57 14.58Q395.00 14.38 395.27 14.04L395.27 14.04L395.27 14.04Q395.54 13.69 395.67 13.25L395.67 13.25L395.67 13.25Q395.81 12.81 395.81 12.32L395.81 12.32L395.81 12.15L396.98 12.15L396.98 12.32L396.98 12.32Q396.98 13.06 396.76 13.71L396.76 13.71L396.76 13.71Q396.54 14.36 396.10 14.85L396.10 14.85L396.10 14.85Q395.67 15.33 395.02 15.60L395.02 15.60L395.02 15.60Q394.38 15.88 393.54 15.88L393.54 15.88L393.54 15.88Q391.92 15.88 391.01 14.85L391.01 14.85L391.01 14.85Q390.10 13.83 390.10 11.87L390.10 11.87L390.10 9.69L390.10 9.69Q390.10 7.78 391.01 6.73L391.01 6.73L391.01 6.73Q391.92 5.68 393.54 5.68L393.54 5.68L393.54 5.68Q394.38 5.68 395.02 5.96L395.02 5.96L395.02 5.96Q395.67 6.23 396.10 6.71L396.10 6.71L396.10 6.71Q396.54 7.20 396.76 7.85L396.76 7.85L396.76 7.85Q396.98 8.50 396.98 9.24L396.98 9.24L396.98 9.41L395.81 9.41L395.81 9.24L395.81 9.24Q395.79 8.76 395.66 8.32L395.66 8.32L395.66 8.32Q395.53 7.87 395.25 7.53L395.25 7.53L395.25 7.53Q394.98 7.18 394.56 6.98L394.56 6.98L394.56 6.98Q394.14 6.78 393.54 6.78L393.54 6.78L393.54 6.78Q392.41 6.78 391.84 7.60L391.84 7.60L391.84 7.60Q391.27 8.43 391.27 9.77L391.27 9.77L391.27 11.79L391.27 11.79Q391.27 13.23 391.84 14.01L391.84 14.01L391.84 14.01Q392.41 14.78 393.54 14.78ZM406.08 15.68L406.08 5.88L412.02 5.88L412.02 6.97L407.26 6.97L407.26 10.22L411.94 10.22L411.94 11.31L407.26 11.31L407.26 14.59L412.10 14.59L412.10 15.68L406.08 15.68Z"></path></g></svg>