<svg data-v-423bf9ae="" xmlns="http://www.w3.org/2000/svg" viewBox="0 0 59.99869794514382 60" class="icon"><!----><!----><!----><!----><g data-v-423bf9ae="" id="2cc23170-29fd-45e2-8c59-d469fa8d3059" transform="matrix(0.6666520833969116,0,0,0.6666520833969116,-3.3335623741149902,-3.333644390106201)" stroke="none" fill="white"><path d="M60.235 5.172V5.17c-.244-.428-.525.066-.742.266-4.564 5.039-9.201 10.018-13.732 15.086 1.316.014 5.205.018 9.723.02v34.941h-9.465v9.037h18.502V20.541c4.514-.004 8.4-.008 9.721-.014-4.641-5.146-9.327-10.25-14.007-15.355z"></path><path d="M44.519 44.52h9.465v-9.037H35.481v43.979c-4.514.002-8.402.008-9.721.014 4.641 5.145 9.326 10.25 14.006 15.354v.004c.244.426.525-.066.742-.266 4.564-5.039 9.201-10.018 13.732-15.088-1.316-.012-5.205-.016-9.723-.018V44.52z"></path><path d="M33.981 55.482H20.54c-.002-4.516-.008-8.402-.014-9.721-5.145 4.641-10.25 9.324-15.354 14.006h-.003c-.426.242.066.523.266.74 5.039 4.566 10.018 9.201 15.088 13.732.012-1.316.016-5.205.018-9.721h13.441v-9.036zM94.567 39.492c-5.041-4.564-10.02-9.201-15.088-13.73a1782.48 1782.48 0 0 0-.02 9.721H66.021v9.037H79.46c.004 4.514.008 8.402.014 9.721 5.146-4.641 10.25-9.326 15.355-14.006h.002c.428-.243-.066-.524-.264-.743z"></path></g><!----></svg>